<svg width="253" height="78" viewBox="0 0 253 78" fill="none" xmlns="http://www.w3.org/2000/svg">
<mask id="mask0_22517_1346" style="mask-type:alpha" maskUnits="userSpaceOnUse" x="0" y="0" width="253" height="78">
<path d="M0 9C0 4.02944 4.02944 0 9 0H28C32.9706 0 37 4.02944 37 9C37 13.9706 32.9706 18 28 18H9C4.02944 18 0 13.9706 0 9Z" fill="#EEF2F5"/>
<path d="M0 43C0 38.0294 4.02944 34 9 34H244C248.971 34 253 38.0294 253 43C253 47.9706 248.971 52 244 52H9C4.02944 52 0 47.9706 0 43Z" fill="#EEF2F5"/>
<path d="M0 69C0 64.0294 4.02944 60 9 60H111C115.971 60 120 64.0294 120 69C120 73.9706 115.971 78 111 78H9C4.02944 78 0 73.9706 0 69Z" fill="#EEF2F5"/>
</mask>
<g mask="url(#mask0_22517_1346)">
<path d="M0 9C0 4.02944 4.02944 0 9 0H28C32.9706 0 37 4.02944 37 9C37 13.9706 32.9706 18 28 18H9C4.02944 18 0 13.9706 0 9Z" fill="white" fill-opacity="0.12"/>
<path d="M0 43C0 38.0294 4.02944 34 9 34H244C248.971 34 253 38.0294 253 43C253 47.9706 248.971 52 244 52H9C4.02944 52 0 47.9706 0 43Z" fill="white" fill-opacity="0.12"/>
<path d="M0 69C0 64.0294 4.02944 60 9 60H111C115.971 60 120 64.0294 120 69C120 73.9706 115.971 78 111 78H9C4.02944 78 0 73.9706 0 69Z" fill="white" fill-opacity="0.12"/>
<path opacity="0.12" fill-rule="evenodd" clip-rule="evenodd" d="M0 14C0 6.26801 6.26801 0 14 0H98C105.732 0 112 6.26801 112 14V64C112 71.732 105.732 78 98 78H14C6.26801 78 0 71.732 0 64V14Z" fill="url(#paint0_linear_22517_1346)"/>
</g>
<defs>
<linearGradient id="paint0_linear_22517_1346" x1="-4.27964e-07" y1="40.8073" x2="112" y2="40.8073" gradientUnits="userSpaceOnUse">
<stop stop-color="white" stop-opacity="0"/>
<stop offset="0.48886" stop-color="white"/>
<stop offset="1" stop-color="white" stop-opacity="0"/>
</linearGradient>
</defs>
</svg>
