<svg width="318" height="44" viewBox="0 0 318 44" fill="none" xmlns="http://www.w3.org/2000/svg">
<mask id="mask0_22517_1350" style="mask-type:alpha" maskUnits="userSpaceOnUse" x="0" y="0" width="318" height="44">
<path d="M0 9C0 4.02944 4.02944 0 9 0H309C313.971 0 318 4.02944 318 9C318 13.9706 313.971 18 309 18H9C4.02944 18 0 13.9706 0 9Z" fill="#F9FBFD"/>
<path d="M0 35C0 30.0294 4.02944 26 9 26H199C203.971 26 208 30.0294 208 35C208 39.9706 203.971 44 199 44H9C4.02943 44 0 39.9706 0 35Z" fill="#F9FBFD"/>
</mask>
<g mask="url(#mask0_22517_1350)">
<path d="M0 9C0 4.02944 4.02944 0 9 0H309C313.971 0 318 4.02944 318 9C318 13.9706 313.971 18 309 18H9C4.02944 18 0 13.9706 0 9Z" fill="white" fill-opacity="0.12"/>
<path d="M0 35C0 30.0294 4.02944 26 9 26H199C203.971 26 208 30.0294 208 35C208 39.9706 203.971 44 199 44H9C4.02943 44 0 39.9706 0 35Z" fill="white" fill-opacity="0.12"/>
<path opacity="0.12" fill-rule="evenodd" clip-rule="evenodd" d="M0 14C0 6.26801 6.26801 0 14 0H98C105.732 0 112 6.26801 112 14V30C112 37.732 105.732 44 98 44H14C6.26801 44 0 37.732 0 30V14Z" fill="url(#paint0_linear_22517_1350)"/>
</g>
<defs>
<linearGradient id="paint0_linear_22517_1350" x1="-4.27964e-07" y1="23.0195" x2="112" y2="23.0195" gradientUnits="userSpaceOnUse">
<stop stop-color="white" stop-opacity="0"/>
<stop offset="0.48886" stop-color="white"/>
<stop offset="1" stop-color="white" stop-opacity="0"/>
</linearGradient>
</defs>
</svg>
